# xmcd
#
# Track frame offsets:
#	150
#	18261
#	36254
#
# Disc length: 731 seconds
#
# Revision: 0
# Processed by: cddbd v1.5.1PL0 Copyright (c) Steve Scherf et al.
# Submitted via: audiograbber 1.82.02
#
DISCID=1a02d903
DTITLE=Anne McCue - Stupid
DYEAR=2004
DGENRE=Blues
TTITLE0=Stupid
TTITLE1=Voodoo Child (Slight Return)
TTITLE2=Fitzroy Blues
EXTD=
EXTT0=
EXTT1=
EXTT2=
PLAYORDER=
